<svg width="313" height="103" viewBox="0 0 313 103" fill="none" xmlns="http://www.w3.org/2000/svg">
<mask id="path-1-outside-1_33_4" maskUnits="userSpaceOnUse" x="0" y="0" width="313" height="103" fill="black">
<rect fill="white" width="313" height="103"/>
<path d="M15.6443 11.752H1.94826V3.304H39.3883V11.752H25.6923V49H15.6443V11.752ZM42.0973 3.304H76.2733V11.752H52.1453V21.544H74.2893V29.352H52.1453V40.552H76.7853V49H42.0973V3.304ZM81.0373 3.304H95.1813L105.869 34.728H105.997L116.109 3.304H130.253V49H120.845V16.616H120.717L109.517 49H101.773L90.5733 16.936H90.4453V49H81.0373V3.304ZM136.54 3.304H146.588V49H136.54V3.304ZM162.967 11.752H149.271V3.304H186.711V11.752H173.015V49H162.967V11.752ZM197.484 26.344C197.484 28.264 197.697 30.1413 198.124 31.976C198.593 33.768 199.318 35.3893 200.3 36.84C201.281 38.2907 202.561 39.464 204.14 40.36C205.718 41.2133 207.638 41.64 209.9 41.64C212.161 41.64 214.081 41.2133 215.66 40.36C217.238 39.464 218.518 38.2907 219.5 36.84C220.481 35.3893 221.185 33.768 221.612 31.976C222.081 30.1413 222.316 28.264 222.316 26.344C222.316 24.3387 222.081 22.3973 221.612 20.52C221.185 18.6427 220.481 16.9787 219.5 15.528C218.518 14.0347 217.238 12.8613 215.66 12.008C214.081 11.112 212.161 10.664 209.9 10.664C207.638 10.664 205.718 11.112 204.14 12.008C202.561 12.8613 201.281 14.0347 200.3 15.528C199.318 16.9787 198.593 18.6427 198.124 20.52C197.697 22.3973 197.484 24.3387 197.484 26.344ZM187.436 26.344C187.436 22.9307 187.948 19.7733 188.972 16.872C189.996 13.928 191.468 11.368 193.388 9.192C195.308 7.016 197.654 5.30933 200.428 4.072C203.244 2.83467 206.401 2.216 209.9 2.216C213.441 2.216 216.598 2.83467 219.372 4.072C222.145 5.30933 224.492 7.016 226.412 9.192C228.332 11.368 229.804 13.928 230.828 16.872C231.852 19.7733 232.364 22.9307 232.364 26.344C232.364 29.672 231.852 32.7867 230.828 35.688C229.804 38.5467 228.332 41.0427 226.412 43.176C224.492 45.3093 222.145 46.9947 219.372 48.232C216.598 49.4267 213.441 50.024 209.9 50.024C206.401 50.024 203.244 49.4267 200.428 48.232C197.654 46.9947 195.308 45.3093 193.388 43.176C191.468 41.0427 189.996 38.5467 188.972 35.688C187.948 32.7867 187.436 29.672 187.436 26.344ZM246.72 24.808H254.528C255.68 24.808 256.79 24.7227 257.856 24.552C258.923 24.3813 259.862 24.0613 260.672 23.592C261.483 23.08 262.123 22.376 262.592 21.48C263.104 20.584 263.36 19.4107 263.36 17.96C263.36 16.5093 263.104 15.336 262.592 14.44C262.123 13.544 261.483 12.8613 260.672 12.392C259.862 11.88 258.923 11.5387 257.856 11.368C256.79 11.1973 255.68 11.112 254.528 11.112H246.72V24.808ZM236.672 3.304H257.28C260.139 3.304 262.571 3.73066 264.576 4.584C266.582 5.39467 268.203 6.48267 269.44 7.848C270.72 9.21333 271.638 10.7707 272.192 12.52C272.79 14.2693 273.088 16.0827 273.088 17.96C273.088 19.7947 272.79 21.608 272.192 23.4C271.638 25.1493 270.72 26.7067 269.44 28.072C268.203 29.4373 266.582 30.5467 264.576 31.4C262.571 32.2107 260.139 32.616 257.28 32.616H246.72V49H236.672V3.304ZM276.8 3.304H310.976V11.752H286.848V21.544H308.992V29.352H286.848V40.552H311.488V49H276.8V3.304ZM26.4285 82.336H38.2685L32.5085 65.568H32.3805L26.4285 82.336ZM27.3885 54.304H37.6925L54.7805 100H44.3485L40.8925 89.824H23.8045L20.2205 100H10.1085L27.3885 54.304ZM66.209 91.552H75.169C76.6197 91.552 78.0277 91.3173 79.393 90.848C80.7583 90.3787 81.9743 89.6107 83.041 88.544C84.1077 87.4347 84.961 86.0053 85.601 84.256C86.241 82.5067 86.561 80.3733 86.561 77.856C86.561 75.552 86.3263 73.4827 85.857 71.648C85.4303 69.7707 84.705 68.1707 83.681 66.848C82.657 65.5253 81.2917 64.5227 79.585 63.84C77.921 63.1147 75.8517 62.752 73.377 62.752H66.209V91.552ZM56.161 54.304H75.873C78.817 54.304 81.5477 54.7733 84.065 55.712C86.625 56.6507 88.8223 58.0587 90.657 59.936C92.5343 61.8133 93.985 64.16 95.009 66.976C96.0757 69.792 96.609 73.0987 96.609 76.896C96.609 80.224 96.1823 83.296 95.329 86.112C94.4757 88.928 93.1743 91.36 91.425 93.408C89.7183 95.456 87.5637 97.0773 84.961 98.272C82.401 99.424 79.3717 100 75.873 100H56.161V54.304ZM101.038 54.304H135.214V62.752H111.086V72.544H133.23V80.352H111.086V91.552H135.726V100H101.038V54.304ZM150.027 72.8H160.203C161.995 72.8 163.467 72.3733 164.619 71.52C165.771 70.6667 166.347 69.28 166.347 67.36C166.347 66.2933 166.155 65.4187 165.771 64.736C165.387 64.0533 164.875 63.52 164.235 63.136C163.595 62.752 162.848 62.496 161.995 62.368C161.184 62.1973 160.331 62.112 159.435 62.112H150.027V72.8ZM139.979 54.304H161.483C163.659 54.304 165.643 54.496 167.435 54.88C169.227 55.264 170.763 55.904 172.043 56.8C173.323 57.6533 174.304 58.8053 174.987 60.256C175.712 61.7067 176.075 63.4987 176.075 65.632C176.075 67.936 175.541 69.856 174.475 71.392C173.451 72.928 171.915 74.1867 169.867 75.168C172.683 75.9787 174.773 77.408 176.139 79.456C177.547 81.4613 178.251 83.8933 178.251 86.752C178.251 89.056 177.803 91.0613 176.907 92.768C176.011 94.432 174.795 95.7973 173.259 96.864C171.765 97.9307 170.037 98.72 168.075 99.232C166.155 99.744 164.171 100 162.123 100H139.979V54.304ZM150.027 92.192H160.779C161.76 92.192 162.699 92.1067 163.595 91.936C164.491 91.7227 165.28 91.4027 165.963 90.976C166.645 90.5067 167.179 89.888 167.562 89.12C167.989 88.352 168.203 87.3707 168.203 86.176C168.203 83.8293 167.541 82.1653 166.219 81.184C164.896 80.16 163.147 79.648 160.971 79.648H150.027V92.192ZM194.001 82.336H205.841L200.081 65.568H199.953L194.001 82.336ZM194.961 54.304H205.265L222.353 100H211.921L208.465 89.824H191.377L187.793 100H177.681L194.961 54.304ZM230.823 82.208L214.055 54.304H225.319L236.007 72.352L246.631 54.304H257.831L240.871 82.464V100H230.823V82.208ZM267.175 77.344C267.175 79.264 267.388 81.1413 267.815 82.976C268.284 84.768 269.01 86.3893 269.991 87.84C270.972 89.2907 272.252 90.464 273.831 91.36C275.41 92.2133 277.33 92.64 279.591 92.64C281.852 92.64 283.772 92.2133 285.351 91.36C286.93 90.464 288.21 89.2907 289.191 87.84C290.172 86.3893 290.876 84.768 291.303 82.976C291.772 81.1413 292.007 79.264 292.007 77.344C292.007 75.3387 291.772 73.3973 291.303 71.52C290.876 69.6427 290.172 67.9787 289.191 66.528C288.21 65.0347 286.93 63.8613 285.351 63.008C283.772 62.112 281.852 61.664 279.591 61.664C277.33 61.664 275.41 62.112 273.831 63.008C272.252 63.8613 270.972 65.0347 269.991 66.528C269.01 67.9787 268.284 69.6427 267.815 71.52C267.388 73.3973 267.175 75.3387 267.175 77.344ZM257.127 77.344C257.127 73.9307 257.639 70.7733 258.663 67.872C259.687 64.928 261.159 62.368 263.079 60.192C264.999 58.016 267.346 56.3093 270.119 55.072C272.935 53.8347 276.092 53.216 279.591 53.216C283.132 53.216 286.29 53.8347 289.063 55.072C291.836 56.3093 294.183 58.016 296.103 60.192C298.023 62.368 299.495 64.928 300.519 67.872C301.543 70.7733 302.055 73.9307 302.055 77.344C302.055 80.672 301.543 83.7867 300.519 86.688C299.495 89.5467 298.023 92.0427 296.103 94.176C294.183 96.3093 291.836 97.9947 289.063 99.232C286.29 100.427 283.132 101.024 279.591 101.024C276.092 101.024 272.935 100.427 270.119 99.232C267.346 97.9947 264.999 96.3093 263.079 94.176C261.159 92.0427 259.687 89.5467 258.663 86.688C257.639 83.7867 257.127 80.672 257.127 77.344Z"/>
</mask>
<path d="M15.6443 11.752H1.94826V3.304H39.3883V11.752H25.6923V49H15.6443V11.752ZM42.0973 3.304H76.2733V11.752H52.1453V21.544H74.2893V29.352H52.1453V40.552H76.7853V49H42.0973V3.304ZM81.0373 3.304H95.1813L105.869 34.728H105.997L116.109 3.304H130.253V49H120.845V16.616H120.717L109.517 49H101.773L90.5733 16.936H90.4453V49H81.0373V3.304ZM136.54 3.304H146.588V49H136.54V3.304ZM162.967 11.752H149.271V3.304H186.711V11.752H173.015V49H162.967V11.752ZM197.484 26.344C197.484 28.264 197.697 30.1413 198.124 31.976C198.593 33.768 199.318 35.3893 200.3 36.84C201.281 38.2907 202.561 39.464 204.14 40.36C205.718 41.2133 207.638 41.64 209.9 41.64C212.161 41.64 214.081 41.2133 215.66 40.36C217.238 39.464 218.518 38.2907 219.5 36.84C220.481 35.3893 221.185 33.768 221.612 31.976C222.081 30.1413 222.316 28.264 222.316 26.344C222.316 24.3387 222.081 22.3973 221.612 20.52C221.185 18.6427 220.481 16.9787 219.5 15.528C218.518 14.0347 217.238 12.8613 215.66 12.008C214.081 11.112 212.161 10.664 209.9 10.664C207.638 10.664 205.718 11.112 204.14 12.008C202.561 12.8613 201.281 14.0347 200.3 15.528C199.318 16.9787 198.593 18.6427 198.124 20.52C197.697 22.3973 197.484 24.3387 197.484 26.344ZM187.436 26.344C187.436 22.9307 187.948 19.7733 188.972 16.872C189.996 13.928 191.468 11.368 193.388 9.192C195.308 7.016 197.654 5.30933 200.428 4.072C203.244 2.83467 206.401 2.216 209.9 2.216C213.441 2.216 216.598 2.83467 219.372 4.072C222.145 5.30933 224.492 7.016 226.412 9.192C228.332 11.368 229.804 13.928 230.828 16.872C231.852 19.7733 232.364 22.9307 232.364 26.344C232.364 29.672 231.852 32.7867 230.828 35.688C229.804 38.5467 228.332 41.0427 226.412 43.176C224.492 45.3093 222.145 46.9947 219.372 48.232C216.598 49.4267 213.441 50.024 209.9 50.024C206.401 50.024 203.244 49.4267 200.428 48.232C197.654 46.9947 195.308 45.3093 193.388 43.176C191.468 41.0427 189.996 38.5467 188.972 35.688C187.948 32.7867 187.436 29.672 187.436 26.344ZM246.72 24.808H254.528C255.68 24.808 256.79 24.7227 257.856 24.552C258.923 24.3813 259.862 24.0613 260.672 23.592C261.483 23.08 262.123 22.376 262.592 21.48C263.104 20.584 263.36 19.4107 263.36 17.96C263.36 16.5093 263.104 15.336 262.592 14.44C262.123 13.544 261.483 12.8613 260.672 12.392C259.862 11.88 258.923 11.5387 257.856 11.368C256.79 11.1973 255.68 11.112 254.528 11.112H246.72V24.808ZM236.672 3.304H257.28C260.139 3.304 262.571 3.73066 264.576 4.584C266.582 5.39467 268.203 6.48267 269.44 7.848C270.72 9.21333 271.638 10.7707 272.192 12.52C272.79 14.2693 273.088 16.0827 273.088 17.96C273.088 19.7947 272.79 21.608 272.192 23.4C271.638 25.1493 270.72 26.7067 269.44 28.072C268.203 29.4373 266.582 30.5467 264.576 31.4C262.571 32.2107 260.139 32.616 257.28 32.616H246.72V49H236.672V3.304ZM276.8 3.304H310.976V11.752H286.848V21.544H308.992V29.352H286.848V40.552H311.488V49H276.8V3.304ZM26.4285 82.336H38.2685L32.5085 65.568H32.3805L26.4285 82.336ZM27.3885 54.304H37.6925L54.7805 100H44.3485L40.8925 89.824H23.8045L20.2205 100H10.1085L27.3885 54.304ZM66.209 91.552H75.169C76.6197 91.552 78.0277 91.3173 79.393 90.848C80.7583 90.3787 81.9743 89.6107 83.041 88.544C84.1077 87.4347 84.961 86.0053 85.601 84.256C86.241 82.5067 86.561 80.3733 86.561 77.856C86.561 75.552 86.3263 73.4827 85.857 71.648C85.4303 69.7707 84.705 68.1707 83.681 66.848C82.657 65.5253 81.2917 64.5227 79.585 63.84C77.921 63.1147 75.8517 62.752 73.377 62.752H66.209V91.552ZM56.161 54.304H75.873C78.817 54.304 81.5477 54.7733 84.065 55.712C86.625 56.6507 88.8223 58.0587 90.657 59.936C92.5343 61.8133 93.985 64.16 95.009 66.976C96.0757 69.792 96.609 73.0987 96.609 76.896C96.609 80.224 96.1823 83.296 95.329 86.112C94.4757 88.928 93.1743 91.36 91.425 93.408C89.7183 95.456 87.5637 97.0773 84.961 98.272C82.401 99.424 79.3717 100 75.873 100H56.161V54.304ZM101.038 54.304H135.214V62.752H111.086V72.544H133.23V80.352H111.086V91.552H135.726V100H101.038V54.304ZM150.027 72.8H160.203C161.995 72.8 163.467 72.3733 164.619 71.52C165.771 70.6667 166.347 69.28 166.347 67.36C166.347 66.2933 166.155 65.4187 165.771 64.736C165.387 64.0533 164.875 63.52 164.235 63.136C163.595 62.752 162.848 62.496 161.995 62.368C161.184 62.1973 160.331 62.112 159.435 62.112H150.027V72.8ZM139.979 54.304H161.483C163.659 54.304 165.643 54.496 167.435 54.88C169.227 55.264 170.763 55.904 172.043 56.8C173.323 57.6533 174.304 58.8053 174.987 60.256C175.712 61.7067 176.075 63.4987 176.075 65.632C176.075 67.936 175.541 69.856 174.475 71.392C173.451 72.928 171.915 74.1867 169.867 75.168C172.683 75.9787 174.773 77.408 176.139 79.456C177.547 81.4613 178.251 83.8933 178.251 86.752C178.251 89.056 177.803 91.0613 176.907 92.768C176.011 94.432 174.795 95.7973 173.259 96.864C171.765 97.9307 170.037 98.72 168.075 99.232C166.155 99.744 164.171 100 162.123 100H139.979V54.304ZM150.027 92.192H160.779C161.76 92.192 162.699 92.1067 163.595 91.936C164.491 91.7227 165.28 91.4027 165.963 90.976C166.645 90.5067 167.179 89.888 167.562 89.12C167.989 88.352 168.203 87.3707 168.203 86.176C168.203 83.8293 167.541 82.1653 166.219 81.184C164.896 80.16 163.147 79.648 160.971 79.648H150.027V92.192ZM194.001 82.336H205.841L200.081 65.568H199.953L194.001 82.336ZM194.961 54.304H205.265L222.353 100H211.921L208.465 89.824H191.377L187.793 100H177.681L194.961 54.304ZM230.823 82.208L214.055 54.304H225.319L236.007 72.352L246.631 54.304H257.831L240.871 82.464V100H230.823V82.208ZM267.175 77.344C267.175 79.264 267.388 81.1413 267.815 82.976C268.284 84.768 269.01 86.3893 269.991 87.84C270.972 89.2907 272.252 90.464 273.831 91.36C275.41 92.2133 277.33 92.64 279.591 92.64C281.852 92.64 283.772 92.2133 285.351 91.36C286.93 90.464 288.21 89.2907 289.191 87.84C290.172 86.3893 290.876 84.768 291.303 82.976C291.772 81.1413 292.007 79.264 292.007 77.344C292.007 75.3387 291.772 73.3973 291.303 71.52C290.876 69.6427 290.172 67.9787 289.191 66.528C288.21 65.0347 286.93 63.8613 285.351 63.008C283.772 62.112 281.852 61.664 279.591 61.664C277.33 61.664 275.41 62.112 273.831 63.008C272.252 63.8613 270.972 65.0347 269.991 66.528C269.01 67.9787 268.284 69.6427 267.815 71.52C267.388 73.3973 267.175 75.3387 267.175 77.344ZM257.127 77.344C257.127 73.9307 257.639 70.7733 258.663 67.872C259.687 64.928 261.159 62.368 263.079 60.192C264.999 58.016 267.346 56.3093 270.119 55.072C272.935 53.8347 276.092 53.216 279.591 53.216C283.132 53.216 286.29 53.8347 289.063 55.072C291.836 56.3093 294.183 58.016 296.103 60.192C298.023 62.368 299.495 64.928 300.519 67.872C301.543 70.7733 302.055 73.9307 302.055 77.344C302.055 80.672 301.543 83.7867 300.519 86.688C299.495 89.5467 298.023 92.0427 296.103 94.176C294.183 96.3093 291.836 97.9947 289.063 99.232C286.29 100.427 283.132 101.024 279.591 101.024C276.092 101.024 272.935 100.427 270.119 99.232C267.346 97.9947 264.999 96.3093 263.079 94.176C261.159 92.0427 259.687 89.5467 258.663 86.688C257.639 83.7867 257.127 80.672 257.127 77.344Z" fill="black"/>
<path d="M15.6443 11.752H17.1443V10.252H15.6443V11.752ZM1.94826 11.752H0.448257V13.252H1.94826V11.752ZM1.94826 3.304V1.804H0.448257V3.304H1.94826ZM39.3883 3.304H40.8883V1.804H39.3883V3.304ZM39.3883 11.752V13.252H40.8883V11.752H39.3883ZM25.6923 11.752V10.252H24.1923V11.752H25.6923ZM25.6923 49V50.5H27.1923V49H25.6923ZM15.6443 49H14.1443V50.5H15.6443V49ZM15.6443 11.752V10.252H1.94826V11.752V13.252H15.6443V11.752ZM1.94826 11.752H3.44826V3.304H1.94826H0.448257V11.752H1.94826ZM1.94826 3.304V4.804H39.3883V3.304V1.804H1.94826V3.304ZM39.3883 3.304H37.8883V11.752H39.3883H40.8883V3.304H39.3883ZM39.3883 11.752V10.252H25.6923V11.752V13.252H39.3883V11.752ZM25.6923 11.752H24.1923V49H25.6923H27.1923V11.752H25.6923ZM25.6923 49V47.5H15.6443V49V50.5H25.6923V49ZM15.6443 49H17.1443V11.752H15.6443H14.1443V49H15.6443ZM42.0973 3.304V1.804H40.5973V3.304H42.0973ZM76.2733 3.304H77.7733V1.804H76.2733V3.304ZM76.2733 11.752V13.252H77.7733V11.752H76.2733ZM52.1453 11.752V10.252H50.6453V11.752H52.1453ZM52.1453 21.544H50.6453V23.044H52.1453V21.544ZM74.2893 21.544H75.7893V20.044H74.2893V21.544ZM74.2893 29.352V30.852H75.7893V29.352H74.2893ZM52.1453 29.352V27.852H50.6453V29.352H52.1453ZM52.1453 40.552H50.6453V42.052H52.1453V40.552ZM76.7853 40.552H78.2853V39.052H76.7853V40.552ZM76.7853 49V50.5H78.2853V49H76.7853ZM42.0973 49H40.5973V50.5H42.0973V49ZM42.0973 3.304V4.804H76.2733V3.304V1.804H42.0973V3.304ZM76.2733 3.304H74.7733V11.752H76.2733H77.7733V3.304H76.2733ZM76.2733 11.752V10.252H52.1453V11.752V13.252H76.2733V11.752ZM52.1453 11.752H50.6453V21.544H52.1453H53.6453V11.752H52.1453ZM52.1453 21.544V23.044H74.2893V21.544V20.044H52.1453V21.544ZM74.2893 21.544H72.7893V29.352H74.2893H75.7893V21.544H74.2893ZM74.2893 29.352V27.852H52.1453V29.352V30.852H74.2893V29.352ZM52.1453 29.352H50.6453V40.552H52.1453H53.6453V29.352H52.1453ZM52.1453 40.552V42.052H76.7853V40.552V39.052H52.1453V40.552ZM76.7853 40.552H75.2853V49H76.7853H78.2853V40.552H76.7853ZM76.7853 49V47.5H42.0973V49V50.5H76.7853V49ZM42.0973 49H43.5973V3.304H42.0973H40.5973V49H42.0973ZM81.0373 3.304V1.804H79.5373V3.304H81.0373ZM95.1813 3.304L96.6014 2.82099L96.2555 1.804H95.1813V3.304ZM105.869 34.728L104.449 35.211L104.795 36.228H105.869V34.728ZM105.997 34.728V36.228H107.09L107.425 35.1875L105.997 34.728ZM116.109 3.304V1.804H115.016L114.681 2.84451L116.109 3.304ZM130.253 3.304H131.753V1.804H130.253V3.304ZM130.253 49V50.5H131.753V49H130.253ZM120.845 49H119.345V50.5H120.845V49ZM120.845 16.616H122.345V15.116H120.845V16.616ZM120.717 16.616V15.116H119.649L119.3 16.1257L120.717 16.616ZM109.517 49V50.5H110.586L110.935 49.4903L109.517 49ZM101.773 49L100.357 49.4946L100.708 50.5H101.773V49ZM90.5733 16.936L91.9894 16.4414L91.6382 15.436H90.5733V16.936ZM90.4453 16.936V15.436H88.9453V16.936H90.4453ZM90.4453 49V50.5H91.9453V49H90.4453ZM81.0373 49H79.5373V50.5H81.0373V49ZM81.0373 3.304V4.804H95.1813V3.304V1.804H81.0373V3.304ZM95.1813 3.304L93.7611 3.78701L104.449 35.211L105.869 34.728L107.289 34.245L96.6014 2.82099L95.1813 3.304ZM105.869 34.728V36.228H105.997V34.728V33.228H105.869V34.728ZM105.997 34.728L107.425 35.1875L117.537 3.76348L116.109 3.304L114.681 2.84451L104.569 34.2685L105.997 34.728ZM116.109 3.304V4.804H130.253V3.304V1.804H116.109V3.304ZM130.253 3.304H128.753V49H130.253H131.753V3.304H130.253ZM130.253 49V47.5H120.845V49V50.5H130.253V49ZM120.845 49H122.345V16.616H120.845H119.345V49H120.845ZM120.845 16.616V15.116H120.717V16.616V18.116H120.845V16.616ZM120.717 16.616L119.3 16.1257L108.1 48.5097L109.517 49L110.935 49.4903L122.135 17.1063L120.717 16.616ZM109.517 49V47.5H101.773V49V50.5H109.517V49ZM101.773 49L103.189 48.5054L91.9894 16.4414L90.5733 16.936L89.1572 17.4306L100.357 49.4946L101.773 49ZM90.5733 16.936V15.436H90.4453V16.936V18.436H90.5733V16.936ZM90.4453 16.936H88.9453V49H90.4453H91.9453V16.936H90.4453ZM90.4453 49V47.5H81.0373V49V50.5H90.4453V49ZM81.0373 49H82.5373V3.304H81.0373H79.5373V49H81.0373ZM136.54 3.304V1.804H135.04V3.304H136.54ZM146.588 3.304H148.088V1.804H146.588V3.304ZM146.588 49V50.5H148.088V49H146.588ZM136.54 49H135.04V50.5H136.54V49ZM136.54 3.304V4.804H146.588V3.304V1.804H136.54V3.304ZM146.588 3.304H145.088V49H146.588H148.088V3.304H146.588ZM146.588 49V47.5H136.54V49V50.5H146.588V49ZM136.54 49H138.04V3.304H136.54H135.04V49H136.54ZM162.967 11.752H164.467V10.252H162.967V11.752ZM149.271 11.752H147.771V13.252H149.271V11.752ZM149.271 3.304V1.804H147.771V3.304H149.271ZM186.711 3.304H188.211V1.804H186.711V3.304ZM186.711 11.752V13.252H188.211V11.752H186.711ZM173.015 11.752V10.252H171.515V11.752H173.015ZM173.015 49V50.5H174.515V49H173.015ZM162.967 49H161.467V50.5H162.967V49ZM162.967 11.752V10.252H149.271V11.752V13.252H162.967V11.752ZM149.271 11.752H150.771V3.304H149.271H147.771V11.752H149.271ZM149.271 3.304V4.804H186.711V3.304V1.804H149.271V3.304ZM186.711 3.304H185.211V11.752H186.711H188.211V3.304H186.711ZM186.711 11.752V10.252H173.015V11.752V13.252H186.711V11.752ZM173.015 11.752H171.515V49H173.015H174.515V11.752H173.015ZM173.015 49V47.5H162.967V49V50.5H173.015V49ZM162.967 49H164.467V11.752H162.967H161.467V49H162.967ZM198.124 31.976L196.663 32.3158L196.667 32.336L196.673 32.356L198.124 31.976ZM200.3 36.84L199.057 37.6805L199.057 37.6805L200.3 36.84ZM204.14 40.36L203.399 41.6645L203.413 41.6722L203.426 41.6796L204.14 40.36ZM215.66 40.36L216.373 41.6796L216.387 41.6722L216.4 41.6645L215.66 40.36ZM219.5 36.84L218.257 35.9995L218.257 35.9995L219.5 36.84ZM221.612 31.976L220.159 31.6043L220.155 31.6164L220.153 31.6286L221.612 31.976ZM221.612 20.52L220.149 20.8524L220.153 20.8682L220.157 20.8838L221.612 20.52ZM219.5 15.528L218.246 16.3518L218.252 16.3602L218.257 16.3685L219.5 15.528ZM215.66 12.008L214.919 13.3125L214.933 13.3202L214.946 13.3276L215.66 12.008ZM204.14 12.008L204.853 13.3276L204.867 13.3202L204.88 13.3125L204.14 12.008ZM200.3 15.528L201.542 16.3685L201.548 16.3602L201.553 16.3518L200.3 15.528ZM198.124 20.52L196.669 20.1562L196.665 20.1718L196.661 20.1876L198.124 20.52ZM188.972 16.872L190.386 17.3712L190.388 17.3648L188.972 16.872ZM193.388 9.192L194.513 10.1844L194.513 10.1844L193.388 9.192ZM200.428 4.072L199.824 2.6987L199.817 2.70215L200.428 4.072ZM219.372 4.072L218.761 5.44185L218.761 5.44185L219.372 4.072ZM226.412 9.192L225.287 10.1844L225.287 10.1844L226.412 9.192ZM230.828 16.872L229.411 17.3648L229.413 17.3712L230.828 16.872ZM230.828 35.688L232.24 36.1938L232.242 36.1872L230.828 35.688ZM226.412 43.176L225.297 42.1726L225.297 42.1726L226.412 43.176ZM219.372 48.232L219.965 49.6096L219.974 49.6058L219.983 49.6018L219.372 48.232ZM200.428 48.232L199.817 49.6018L199.829 49.6075L199.842 49.6129L200.428 48.232ZM193.388 43.176L194.503 42.1726L194.503 42.1726L193.388 43.176ZM188.972 35.688L187.557 36.1872L187.56 36.1938L188.972 35.688ZM197.484 26.344H195.984C195.984 28.3762 196.21 30.3676 196.663 32.3158L198.124 31.976L199.585 31.6362C199.185 29.9151 198.984 28.1518 198.984 26.344H197.484ZM198.124 31.976L196.673 32.356C197.183 34.3027 197.976 36.0813 199.057 37.6805L200.3 36.84L201.542 35.9995C200.661 34.6974 200.004 33.2333 199.575 31.596L198.124 31.976ZM200.3 36.84L199.057 37.6805C200.173 39.3295 201.627 40.6588 203.399 41.6645L204.14 40.36L204.88 39.0555C203.495 38.2692 202.389 37.2519 201.542 35.9995L200.3 36.84ZM204.14 40.36L203.426 41.6796C205.274 42.6782 207.453 43.14 209.9 43.14V41.64V40.14C207.824 40.14 206.163 39.7484 204.853 39.0404L204.14 40.36ZM209.9 41.64V43.14C212.347 43.14 214.525 42.6782 216.373 41.6796L215.66 40.36L214.946 39.0404C213.637 39.7484 211.976 40.14 209.9 40.14V41.64ZM215.66 40.36L216.4 41.6645C218.172 40.6588 219.627 39.3295 220.742 37.6805L219.5 36.84L218.257 35.9995C217.41 37.2519 216.305 38.2692 214.919 39.0555L215.66 40.36ZM219.5 36.84L220.742 37.6805C221.83 36.0722 222.605 34.2823 223.071 32.3234L221.612 31.976L220.153 31.6286C219.766 33.2537 219.132 34.7064 218.257 35.9995L219.5 36.84ZM221.612 31.976L223.065 32.3477C223.566 30.3899 223.816 28.3876 223.816 26.344H222.316H220.816C220.816 28.1404 220.596 29.8927 220.159 31.6043L221.612 31.976ZM222.316 26.344H223.816C223.816 24.2205 223.567 22.1568 223.067 20.1562L221.612 20.52L220.157 20.8838C220.595 22.6379 220.816 24.4568 220.816 26.344H222.316ZM221.612 20.52L223.074 20.1876C222.611 18.1467 221.838 16.307 220.742 14.6875L219.5 15.528L218.257 16.3685C219.124 17.6503 219.76 19.1386 220.149 20.8524L221.612 20.52ZM219.5 15.528L220.753 14.7042C219.635 13.0026 218.169 11.6593 216.373 10.6884L215.66 12.008L214.946 13.3276C216.308 14.0634 217.402 15.0668 218.246 16.3518L219.5 15.528ZM215.66 12.008L216.4 10.7035C214.547 9.65148 212.358 9.164 209.9 9.164V10.664V12.164C211.965 12.164 213.616 12.5725 214.919 13.3125L215.66 12.008ZM209.9 10.664V9.164C207.442 9.164 205.253 9.65148 203.399 10.7035L204.14 12.008L204.88 13.3125C206.184 12.5725 207.835 12.164 209.9 12.164V10.664ZM204.14 12.008L203.426 10.6884C201.63 11.6593 200.164 13.0026 199.046 14.7042L200.3 15.528L201.553 16.3518C202.398 15.0668 203.492 14.0634 204.853 13.3276L204.14 12.008ZM200.3 15.528L199.057 14.6875C197.968 16.2979 197.176 18.1265 196.669 20.1562L198.124 20.52L199.579 20.8838C200.01 19.1588 200.669 17.6595 201.542 16.3685L200.3 15.528ZM198.124 20.52L196.661 20.1876C196.209 22.1784 195.984 24.2315 195.984 26.344H197.484H198.984C198.984 24.4459 199.186 22.6162 199.586 20.8524L198.124 20.52ZM187.436 26.344H188.936C188.936 23.0822 189.425 20.0956 190.386 17.3712L188.972 16.872L187.557 16.3728C186.471 19.451 185.936 22.7791 185.936 26.344H187.436ZM188.972 16.872L190.388 17.3648C191.353 14.5909 192.731 12.2039 194.513 10.1844L193.388 9.192L192.263 8.19956C190.205 10.5321 188.638 13.2651 187.555 16.3792L188.972 16.872ZM193.388 9.192L194.513 10.1844C196.284 8.17707 198.453 6.59578 201.039 5.44185L200.428 4.072L199.817 2.70215C196.856 4.02288 194.332 5.85493 192.263 8.19957L193.388 9.192ZM200.428 4.072L201.031 5.44528C203.633 4.30226 206.58 3.716 209.9 3.716V2.216V0.716C206.222 0.716 202.855 1.36707 199.824 2.69872L200.428 4.072ZM209.9 2.216V3.716C213.265 3.716 216.209 4.3034 218.761 5.44185L219.372 4.072L219.983 2.70215C216.988 1.36593 213.617 0.716 209.9 0.716V2.216ZM219.372 4.072L218.761 5.44185C221.347 6.59578 223.516 8.17707 225.287 10.1844L226.412 9.192L227.537 8.19957C225.468 5.85493 222.943 4.02288 219.983 2.70215L219.372 4.072ZM226.412 9.192L225.287 10.1844C227.069 12.2039 228.446 14.5909 229.411 17.3648L230.828 16.872L232.245 16.3792C231.161 13.2651 229.595 10.5321 227.537 8.19956L226.412 9.192ZM230.828 16.872L229.413 17.3712C230.375 20.0956 230.864 23.0822 230.864 26.344H232.364H233.864C233.864 22.7791 233.329 19.451 232.242 16.3728L230.828 16.872ZM232.364 26.344H230.864C230.864 29.5158 230.376 32.4604 229.413 35.1888L230.828 35.688L232.242 36.1872C233.327 33.1129 233.864 29.8282 233.864 26.344H232.364ZM230.828 35.688L229.416 35.1822C228.454 37.868 227.079 40.1925 225.297 42.1726L226.412 43.176L227.527 44.1794C229.585 41.8929 231.154 39.2253 232.24 36.1938L230.828 35.688ZM226.412 43.176L225.297 42.1726C223.525 44.1409 221.354 45.7053 218.761 46.8622L219.372 48.232L219.983 49.6018C222.937 48.284 225.458 46.4778 227.527 44.1794L226.412 43.176ZM219.372 48.232L218.778 46.8544C216.222 47.9556 213.272 48.524 209.9 48.524V50.024V51.524C213.61 51.524 216.975 50.8977 219.965 49.6096L219.372 48.232ZM209.9 50.024V48.524C206.574 48.524 203.62 47.9567 201.014 46.8511L200.428 48.232L199.842 49.6129C202.868 50.8967 206.229 51.524 209.9 51.524V50.024ZM200.428 48.232L201.039 46.8622C198.446 45.7053 196.274 44.1409 194.503 42.1726L193.388 43.176L192.273 44.1794C194.341 46.4778 196.863 48.284 199.817 49.6018L200.428 48.232ZM193.388 43.176L194.503 42.1726C192.721 40.1925 191.346 37.868 190.384 35.1822L188.972 35.688L187.56 36.1938C188.646 39.2253 190.215 41.8929 192.273 44.1794L193.388 43.176ZM188.972 35.688L190.386 35.1888C189.423 32.4604 188.936 29.5158 188.936 26.344H187.436H185.936C185.936 29.8282 186.472 33.1129 187.557 36.1872L188.972 35.688ZM246.72 24.808H245.22V26.308H246.72V24.808ZM257.856 24.552L257.619 23.0708L257.619 23.0708L257.856 24.552ZM260.672 23.592L261.424 24.8901L261.449 24.8757L261.473 24.8602L260.672 23.592ZM262.592 21.48L261.29 20.7358L261.276 20.7596L261.264 20.784L262.592 21.48ZM262.592 14.44L261.264 15.136L261.276 15.1603L261.29 15.1842L262.592 14.44ZM260.672 12.392L259.871 13.6602L259.896 13.6757L259.921 13.6901L260.672 12.392ZM257.856 11.368L257.619 12.8492L257.619 12.8492L257.856 11.368ZM246.72 11.112V9.612H245.22V11.112H246.72ZM236.672 3.304V1.804H235.172V3.304H236.672ZM264.576 4.584L263.989 5.96423L264.001 5.96956L264.014 5.97467L264.576 4.584ZM269.44 7.848L268.329 8.85528L268.337 8.86467L268.346 8.87391L269.44 7.848ZM272.192 12.52L270.762 12.9734L270.767 12.9891L270.773 13.0047L272.192 12.52ZM272.192 23.4L270.769 22.9257L270.766 22.9361L270.762 22.9466L272.192 23.4ZM269.44 28.072L268.346 27.0461L268.337 27.0553L268.329 27.0647L269.44 28.072ZM264.576 31.4L265.138 32.7907L265.151 32.7856L265.164 32.7802L264.576 31.4ZM246.72 32.616V31.116H245.22V32.616H246.72ZM246.72 49V50.5H248.22V49H246.72ZM236.672 49H235.172V50.5H236.672V49ZM246.72 24.808V26.308H254.528V24.808V23.308H246.72V24.808ZM254.528 24.808V26.308C255.754 26.308 256.943 26.2172 258.093 26.0332L257.856 24.552L257.619 23.0708C256.636 23.2282 255.606 23.308 254.528 23.308V24.808ZM257.856 24.552L258.093 26.0332C259.314 25.8379 260.432 25.4644 261.424 24.8901L260.672 23.592L259.921 22.2939C259.291 22.6583 258.532 22.9248 257.619 23.0708L257.856 24.552ZM260.672 23.592L261.473 24.8602C262.52 24.1994 263.336 23.2925 263.921 22.176L262.592 21.48L261.264 20.784C260.91 21.4595 260.446 21.9606 259.871 22.3238L260.672 23.592ZM262.592 21.48L263.895 22.2242C264.578 21.0279 264.86 19.5713 264.86 17.96H263.36H261.86C261.86 19.25 261.63 20.14 261.29 20.7358L262.592 21.48ZM263.36 17.96H264.86C264.86 16.3487 264.578 14.892 263.895 13.6958L262.592 14.44L261.29 15.1842C261.63 15.7799 261.86 16.67 261.86 17.96H263.36ZM262.592 14.44L263.921 13.744C263.331 12.6176 262.5 11.7167 261.424 11.0939L260.672 12.392L259.921 13.6901C260.466 14.006 260.915 14.4704 261.264 15.136L262.592 14.44ZM260.672 12.392L261.473 11.1238C260.47 10.4904 259.335 10.0855 258.093 9.88684L257.856 11.368L257.619 12.8492C258.511 12.9918 259.253 13.2696 259.871 13.6602L260.672 12.392ZM257.856 11.368L258.093 9.88684C256.943 9.70284 255.754 9.612 254.528 9.612V11.112V12.612C255.606 12.612 256.636 12.6918 257.619 12.8492L257.856 11.368ZM254.528 11.112V9.612H246.72V11.112V12.612H254.528V11.112ZM246.72 11.112H245.22V24.808H246.72H248.22V11.112H246.72ZM236.672 3.304V4.804H257.28V3.304V1.804H236.672V3.304ZM257.28 3.304V4.804C259.997 4.804 262.217 5.21042 263.989 5.96423L264.576 4.584L265.164 3.20377C262.924 2.25091 260.281 1.804 257.28 1.804V3.304ZM264.576 4.584L264.014 5.97467C265.846 6.71523 267.268 7.68425 268.329 8.85528L269.44 7.848L270.552 6.84072C269.138 5.28108 267.317 4.0741 265.138 3.19333L264.576 4.584ZM269.44 7.848L268.346 8.87391C269.476 10.0792 270.277 11.4419 270.762 12.9734L272.192 12.52L273.622 12.0666C272.998 10.0995 271.965 8.34748 270.535 6.82209L269.44 7.848ZM272.192 12.52L270.773 13.0047C271.316 14.5955 271.588 16.2449 271.588 17.96H273.088H274.588C274.588 15.9204 274.263 13.9431 273.612 12.0353L272.192 12.52ZM273.088 17.96H271.588C271.588 19.6287 271.317 21.282 270.769 22.9257L272.192 23.4L273.615 23.8743C274.262 21.934 274.588 19.9606 274.588 17.96H273.088ZM272.192 23.4L270.762 22.9466C270.277 24.4781 269.476 25.8408 268.346 27.0461L269.44 28.072L270.535 29.0979C271.965 27.5725 272.998 25.8205 273.622 23.8534L272.192 23.4ZM269.44 28.072L268.329 27.0647C267.261 28.2426 265.831 29.236 263.989 30.0198L264.576 31.4L265.164 32.7802C267.332 31.8573 269.145 30.6321 270.552 29.0793L269.44 28.072ZM264.576 31.4L264.014 30.0093C262.235 30.7286 260.005 31.116 257.28 31.116V32.616V34.116C260.273 34.116 262.907 33.6927 265.138 32.7907L264.576 31.4ZM257.28 32.616V31.116H246.72V32.616V34.116H257.28V32.616ZM246.72 32.616H245.22V49H246.72H248.22V32.616H246.72ZM246.72 49V47.5H236.672V49V50.5H246.72V49ZM236.672 49H238.172V3.304H236.672H235.172V49H236.672ZM276.8 3.304V1.804H275.3V3.304H276.8ZM310.976 3.304H312.476V1.804H310.976V3.304ZM310.976 11.752V13.252H312.476V11.752H310.976ZM286.848 11.752V10.252H285.348V11.752H286.848ZM286.848 21.544H285.348V23.044H286.848V21.544ZM308.992 21.544H310.492V20.044H308.992V21.544ZM308.992 29.352V30.852H310.492V29.352H308.992ZM286.848 29.352V27.852H285.348V29.352H286.848ZM286.848 40.552H285.348V42.052H286.848V40.552ZM311.488 40.552H312.988V39.052H311.488V40.552ZM311.488 49V50.5H312.988V49H311.488ZM276.8 49H275.3V50.5H276.8V49ZM276.8 3.304V4.804H310.976V3.304V1.804H276.8V3.304ZM310.976 3.304H309.476V11.752H310.976H312.476V3.304H310.976ZM310.976 11.752V10.252H286.848V11.752V13.252H310.976V11.752ZM286.848 11.752H285.348V21.544H286.848H288.348V11.752H286.848ZM286.848 21.544V23.044H308.992V21.544V20.044H286.848V21.544ZM308.992 21.544H307.492V29.352H308.992H310.492V21.544H308.992ZM308.992 29.352V27.852H286.848V29.352V30.852H308.992V29.352ZM286.848 29.352H285.348V40.552H286.848H288.348V29.352H286.848ZM286.848 40.552V42.052H311.488V40.552V39.052H286.848V40.552ZM311.488 40.552H309.988V49H311.488H312.988V40.552H311.488ZM311.488 49V47.5H276.8V49V50.5H311.488V49ZM276.8 49H278.3V3.304H276.8H275.3V49H276.8ZM26.4285 82.336L25.0149 81.8342L24.3044 83.836H26.4285V82.336ZM38.2685 82.336V83.836H40.3698L39.6871 81.8487L38.2685 82.336ZM32.5085 65.568L33.9271 65.0807L33.5793 64.068H32.5085V65.568ZM32.3805 65.568V64.068H31.3212L30.9669 65.0662L32.3805 65.568ZM27.3885 54.304V52.804H26.3521L25.9855 53.7734L27.3885 54.304ZM37.6925 54.304L39.0975 53.7786L38.733 52.804H37.6925V54.304ZM54.7805 100V101.5H56.9429L56.1855 99.4746L54.7805 100ZM44.3485 100L42.9282 100.482L43.2738 101.5H44.3485V100ZM40.8925 89.824L42.3128 89.3416L41.9672 88.324H40.8925V89.824ZM23.8045 89.824V88.324H22.7425L22.3897 89.3257L23.8045 89.824ZM20.2205 100V101.5H21.2825L21.6353 100.498L20.2205 100ZM10.1085 100L8.70546 99.4694L7.9376 101.5H10.1085V100ZM26.4285 82.336V83.836H38.2685V82.336V80.836H26.4285V82.336ZM38.2685 82.336L39.6871 81.8487L33.9271 65.0807L32.5085 65.568L31.0899 66.0553L36.8499 82.8233L38.2685 82.336ZM32.5085 65.568V64.068H32.3805V65.568V67.068H32.5085V65.568ZM32.3805 65.568L30.9669 65.0662L25.0149 81.8342L26.4285 82.336L27.8421 82.8378L33.7941 66.0698L32.3805 65.568ZM27.3885 54.304V55.804H37.6925V54.304V52.804H27.3885V54.304ZM37.6925 54.304L36.2875 54.8294L53.3755 100.525L54.7805 100L56.1855 99.4746L39.0975 53.7786L37.6925 54.304ZM54.7805 100V98.5H44.3485V100V101.5H54.7805V100ZM44.3485 100L45.7688 99.5176L42.3128 89.3416L40.8925 89.824L39.4722 90.3064L42.9282 100.482L44.3485 100ZM40.8925 89.824V88.324H23.8045V89.824V91.324H40.8925V89.824ZM23.8045 89.824L22.3897 89.3257L18.8057 99.5017L20.2205 100L21.6353 100.498L25.2193 90.3223L23.8045 89.824ZM20.2205 100V98.5H10.1085V100V101.5H20.2205V100ZM10.1085 100L11.5115 100.531L28.7915 54.8346L27.3885 54.304L25.9855 53.7734L8.70546 99.4694L10.1085 100ZM66.209 91.552H64.709V93.052H66.209V91.552ZM83.041 88.544L84.1017 89.6047L84.1121 89.5943L84.1222 89.5837L83.041 88.544ZM85.601 84.256L87.0097 84.7714L87.0097 84.7714L85.601 84.256ZM85.857 71.648L84.3943 71.9804L84.3988 72.0002L84.4038 72.0197L85.857 71.648ZM83.681 66.848L82.4949 67.7663L82.4949 67.7663L83.681 66.848ZM79.585 63.84L78.9856 65.215L79.0066 65.2242L79.0279 65.2327L79.585 63.84ZM66.209 62.752V61.252H64.709V62.752H66.209ZM56.161 54.304V52.804H54.661V54.304H56.161ZM84.065 55.712L83.5409 57.1175L83.5486 57.1203L84.065 55.712ZM90.657 59.936L89.5842 60.9844L89.5902 60.9906L89.5963 60.9967L90.657 59.936ZM95.009 66.976L93.5993 67.4886L93.6027 67.498L93.6063 67.5073L95.009 66.976ZM95.329 86.112L96.7645 86.547L96.7645 86.547L95.329 86.112ZM91.425 93.408L90.2844 92.4338L90.2785 92.4407L90.2727 92.4477L91.425 93.408ZM84.961 98.272L85.5766 99.6399L85.5867 99.6352L84.961 98.272ZM56.161 100H54.661V101.5H56.161V100ZM66.209 91.552V93.052H75.169V91.552V90.052H66.209V91.552ZM75.169 91.552V93.052C76.7848 93.052 78.3576 92.7901 79.8806 92.2665L79.393 90.848L78.9054 89.4295C77.6977 89.8446 76.4545 90.052 75.169 90.052V91.552ZM79.393 90.848L79.8806 92.2665C81.4714 91.7197 82.8811 90.8252 84.1017 89.6047L83.041 88.544L81.9803 87.4833C81.0675 88.3961 80.0452 89.0376 78.9054 89.4295L79.393 90.848ZM83.041 88.544L84.1222 89.5837C85.3603 88.2961 86.3129 86.676 87.0097 84.7714L85.601 84.256L84.1923 83.7406C83.6091 85.3346 82.855 86.5733 81.9597 87.5043L83.041 88.544ZM85.601 84.256L87.0097 84.7714C87.7272 82.8102 88.061 80.4914 88.061 77.856H86.561H85.061C85.061 80.2553 84.7548 82.2031 84.1923 83.7406L85.601 84.256ZM86.561 77.856H88.061C88.061 75.4526 87.8165 73.2552 87.3102 71.2762L85.857 71.648L84.4038 72.0197C84.8362 73.7101 85.061 75.6514 85.061 77.856H86.561ZM85.857 71.648L87.3197 71.3156C86.8519 69.2572 86.0436 67.4495 84.8671 65.9297L83.681 66.848L82.4949 67.7663C83.3664 68.8919 84.0088 70.2841 84.3943 71.9804L85.857 71.648ZM83.681 66.848L84.8671 65.9297C83.6635 64.3752 82.0717 63.2191 80.1421 62.4473L79.585 63.84L79.0279 65.2327C80.5116 65.8262 81.6504 66.6755 82.4949 67.7663L83.681 66.848ZM79.585 63.84L80.1844 62.465C78.2759 61.6331 75.9875 61.252 73.377 61.252V62.752V64.252C75.7159 64.252 77.5661 64.5963 78.9856 65.215L79.585 63.84ZM73.377 62.752V61.252H66.209V62.752V64.252H73.377V62.752ZM66.209 62.752H64.709V91.552H66.209H67.709V62.752H66.209ZM56.161 54.304V55.804H75.873V54.304V52.804H56.161V54.304ZM75.873 54.304V55.804C78.6552 55.804 81.2066 56.247 83.5409 57.1175L84.065 55.712L84.5891 54.3065C81.8887 53.2996 78.9788 52.804 75.873 52.804V54.304ZM84.065 55.712L83.5486 57.1203C85.907 57.9851 87.912 59.2733 89.5842 60.9844L90.657 59.936L91.7298 58.8876C89.7327 56.8441 87.343 55.3163 84.5814 54.3037L84.065 55.712ZM90.657 59.936L89.5963 60.9967C91.2998 62.7002 92.6405 64.852 93.5993 67.4886L95.009 66.976L96.4187 66.4634C95.3294 63.468 93.7688 60.9265 91.7177 58.8753L90.657 59.936ZM95.009 66.976L93.6063 67.5073C94.5943 70.1157 95.109 73.2348 95.109 76.896H96.609H98.109C98.109 72.9626 97.557 69.4683 96.4117 66.4447L95.009 66.976ZM96.609 76.896H95.109C95.109 80.0956 94.6989 83.0191 93.8935 85.677L95.329 86.112L96.7645 86.547C97.6658 83.5729 98.109 80.3524 98.109 76.896H96.609ZM95.329 86.112L93.8935 85.677C93.0946 88.3133 91.8873 90.5573 90.2844 92.4338L91.425 93.408L92.5656 94.3822C94.4614 92.1627 95.8567 89.5427 96.7645 86.547L95.329 86.112ZM91.425 93.408L90.2727 92.4477C88.7197 94.3113 86.7499 95.8004 84.3352 96.9088L84.961 98.272L85.5867 99.6352C88.3774 98.3543 90.7169 96.6007 92.5773 94.3683L91.425 93.408ZM84.961 98.272L84.3454 96.9041C82.0205 97.9504 79.2102 98.5 75.873 98.5V100V101.5C79.5331 101.5 82.7815 100.898 85.5765 99.6399L84.961 98.272ZM75.873 100V98.5H56.161V100V101.5H75.873V100ZM56.161 100H57.661V54.304H56.161H54.661V100H56.161ZM101.038 54.304V52.804H99.5385V54.304H101.038ZM135.214 54.304H136.714V52.804H135.214V54.304ZM135.214 62.752V64.252H136.714V62.752H135.214ZM111.086 62.752V61.252H109.586V62.752H111.086ZM111.086 72.544H109.586V74.044H111.086V72.544ZM133.23 72.544H134.73V71.044H133.23V72.544ZM133.23 80.352V81.852H134.73V80.352H133.23ZM111.086 80.352V78.852H109.586V80.352H111.086ZM111.086 91.552H109.586V93.052H111.086V91.552ZM135.726 91.552H137.226V90.052H135.726V91.552ZM135.726 100V101.5H137.226V100H135.726ZM101.038 100H99.5385V101.5H101.038V100ZM101.038 54.304V55.804H135.214V54.304V52.804H101.038V54.304ZM135.214 54.304H133.714V62.752H135.214H136.714V54.304H135.214ZM135.214 62.752V61.252H111.086V62.752V64.252H135.214V62.752ZM111.086 62.752H109.586V72.544H111.086H112.586V62.752H111.086ZM111.086 72.544V74.044H133.23V72.544V71.044H111.086V72.544ZM133.23 72.544H131.73V80.352H133.23H134.73V72.544H133.23ZM133.23 80.352V78.852H111.086V80.352V81.852H133.23V80.352ZM111.086 80.352H109.586V91.552H111.086H112.586V80.352H111.086ZM111.086 91.552V93.052H135.726V91.552V90.052H111.086V91.552ZM135.726 91.552H134.226V100H135.726H137.226V91.552H135.726ZM135.726 100V98.5H101.038V100V101.5H135.726V100ZM101.038 100H102.538V54.304H101.038H99.5385V100H101.038ZM150.027 72.8H148.527V74.3H150.027V72.8ZM165.771 64.736L164.463 65.4714L164.463 65.4714L165.771 64.736ZM164.235 63.136L163.463 64.4222L163.463 64.4222L164.235 63.136ZM161.995 62.368L161.685 63.8358L161.729 63.8449L161.772 63.8514L161.995 62.368ZM150.027 62.112V60.612H148.527V62.112H150.027ZM139.979 54.304V52.804H138.479V54.304H139.979ZM172.043 56.8L171.182 58.0288L171.196 58.0386L171.21 58.0481L172.043 56.8ZM174.987 60.256L173.629 60.8947L173.637 60.9108L173.645 60.9268L174.987 60.256ZM174.475 71.392L173.242 70.5364L173.234 70.5481L173.226 70.5599L174.475 71.392ZM169.867 75.168L169.218 73.8153L165.663 75.5188L169.452 76.6095L169.867 75.168ZM176.139 79.456L174.89 80.288L174.9 80.3031L174.911 80.3179L176.139 79.456ZM176.907 92.768L178.227 93.4792L178.231 93.4722L178.235 93.4653L176.907 92.768ZM173.259 96.864L172.403 95.6319L172.395 95.6376L172.387 95.6434L173.259 96.864ZM168.075 99.232L167.696 97.7806L167.688 97.7826L168.075 99.232ZM139.979 100H138.479V101.5H139.979V100ZM150.027 92.192H148.527V93.692H150.027V92.192ZM163.595 91.936L163.875 93.4095L163.909 93.4031L163.942 93.3952L163.595 91.936ZM165.963 90.976L166.757 92.248L166.785 92.2306L166.812 92.2121L165.963 90.976ZM167.562 89.12L166.251 88.3915L166.235 88.42L166.221 88.4492L167.562 89.12ZM166.219 81.184L165.3 82.3701L165.312 82.3795L165.325 82.3886L166.219 81.184ZM150.027 79.648V78.148H148.527V79.648H150.027ZM150.027 72.8V74.3H160.203V72.8V71.3H150.027V72.8ZM160.203 72.8V74.3C162.235 74.3 164.042 73.8134 165.511 72.7253L164.619 71.52L163.726 70.3147C162.891 70.9332 161.754 71.3 160.203 71.3V72.8ZM164.619 71.52L165.511 72.7253C167.167 71.499 167.847 69.5803 167.847 67.36H166.347H164.847C164.847 68.9797 164.374 69.8343 163.726 70.3147L164.619 71.52ZM166.347 67.36H167.847C167.847 66.125 167.626 64.9745 167.078 64.0006L165.771 64.736L164.463 65.4714C164.683 65.8628 164.847 66.4617 164.847 67.36H166.347ZM165.771 64.736L167.078 64.0006C166.573 63.1026 165.881 62.3745 165.006 61.8498L164.235 63.136L163.463 64.4222C163.868 64.6655 164.2 65.0041 164.463 65.4714L165.771 64.736ZM164.235 63.136L165.006 61.8498C164.174 61.3502 163.235 61.0372 162.217 60.8846L161.995 62.368L161.772 63.8514C162.461 63.9548 163.015 64.1538 163.463 64.4222L164.235 63.136ZM161.995 62.368L162.304 60.9002C161.383 60.7065 160.426 60.612 159.435 60.612V62.112V63.612C160.235 63.612 160.984 63.6882 161.685 63.8358L161.995 62.368ZM159.435 62.112V60.612H150.027V62.112V63.612H159.435V62.112ZM150.027 62.112H148.527V72.8H150.027H151.527V62.112H150.027ZM139.979 54.304V55.804H161.483V54.304V52.804H139.979V54.304ZM161.483 54.304V55.804C163.572 55.804 165.449 55.9885 167.12 56.3467L167.435 54.88L167.749 53.4133C165.836 53.0035 163.745 52.804 161.483 52.804V54.304ZM167.435 54.88L167.12 56.3467C168.75 56.6959 170.092 57.2659 171.182 58.0288L172.043 56.8L172.903 55.5712C171.433 54.5421 169.703 53.8321 167.749 53.4133L167.435 54.88ZM172.043 56.8L171.21 58.0481C172.253 58.7433 173.058 59.6803 173.629 60.8947L174.987 60.256L176.344 59.6173C175.55 57.9304 174.392 56.5633 172.875 55.5519L172.043 56.8ZM174.987 60.256L173.645 60.9268C174.239 62.1142 174.575 63.661 174.575 65.632H176.075H177.575C177.575 63.3363 177.185 61.2992 176.328 59.5852L174.987 60.256ZM176.075 65.632H174.575C174.575 67.7019 174.098 69.3047 173.242 70.5364L174.475 71.392L175.707 72.2476C176.985 70.4073 177.575 68.1701 177.575 65.632H176.075ZM174.475 71.392L173.226 70.5599C172.383 71.8253 171.079 72.9237 169.218 73.8153L169.867 75.168L170.515 76.5207C172.75 75.4496 174.518 74.0307 175.723 72.224L174.475 71.392ZM169.867 75.168L169.452 76.6095C171.995 77.3415 173.758 78.5894 174.89 80.288L176.139 79.456L177.387 78.624C175.788 76.2266 173.37 74.6158 170.281 73.7265L169.867 75.168ZM176.139 79.456L174.911 80.3179C176.113 82.0307 176.751 84.1489 176.751 86.752H178.251H179.751C179.751 83.6378 178.98 80.892 177.366 78.5941L176.139 79.456ZM178.251 86.752H176.751C176.751 88.8603 176.341 90.6174 175.578 92.0707L176.907 92.768L178.235 93.4653C179.264 91.5053 179.751 89.2517 179.751 86.752H178.251ZM176.907 92.768L175.586 92.0568C174.8 93.5153 173.743 94.7014 172.403 95.6319L173.259 96.864L174.114 98.0961C175.846 96.8933 177.221 95.3487 178.227 93.4792L176.907 92.768ZM173.259 96.864L172.387 95.6434C171.057 96.593 169.5 97.3099 167.696 97.7806L168.075 99.232L168.453 100.683C170.574 100.13 172.473 99.2683 174.13 98.0846L173.259 96.864ZM168.075 99.232L167.688 97.7826C165.898 98.26 164.044 98.5 162.123 98.5V100V101.5C164.297 101.5 166.411 101.228 168.461 100.681L168.075 99.232ZM162.123 100V98.5H139.979V100V101.5H162.123V100ZM139.979 100H141.479V54.304H139.979H138.479V100H139.979ZM150.027 92.192V93.692H160.779V92.192V90.692H150.027V92.192ZM160.779 92.192V93.692C161.847 93.692 162.88 93.5991 163.875 93.4095L163.595 91.936L163.314 90.4625C162.517 90.6143 161.673 90.692 160.779 90.692V92.192ZM163.595 91.936L163.942 93.3952C164.974 93.1495 165.918 92.7724 166.757 92.248L165.963 90.976L165.168 89.704C164.641 90.033 164.007 90.2958 163.247 90.4768L163.595 91.936ZM165.963 90.976L166.812 92.2121C167.712 91.5936 168.411 90.7772 168.904 89.7908L167.562 89.12L166.221 88.4492C165.946 88.9988 165.578 89.4197 165.113 89.7399L165.963 90.976ZM167.562 89.12L168.874 89.8485C169.461 88.7918 169.703 87.5378 169.703 86.176H168.203H166.703C166.703 87.2035 166.518 87.9122 166.251 88.3915L167.562 89.12ZM168.203 86.176H169.703C169.703 83.5683 168.96 81.3506 167.112 79.9794L166.219 81.184L165.325 82.3886C166.122 82.9801 166.703 84.0904 166.703 86.176H168.203ZM166.219 81.184L167.137 79.9979C165.481 78.7164 163.378 78.148 160.971 78.148V79.648V81.148C162.915 81.148 164.31 81.6036 165.3 82.3701L166.219 81.184ZM160.971 79.648V78.148H150.027V79.648V81.148H160.971V79.648ZM150.027 79.648H148.527V92.192H150.027H151.527V79.648H150.027ZM194.001 82.336L192.587 81.8342L191.877 83.836H194.001V82.336ZM205.841 82.336V83.836H207.942L207.26 81.8487L205.841 82.336ZM200.081 65.568L201.5 65.0807L201.152 64.068H200.081V65.568ZM199.953 65.568V64.068H198.894L198.539 65.0662L199.953 65.568ZM194.961 54.304V52.804H193.925L193.558 53.7734L194.961 54.304ZM205.265 54.304L206.67 53.7786L206.306 52.804H205.265V54.304ZM222.353 100V101.5H224.515L223.758 99.4746L222.353 100ZM211.921 100L210.501 100.482L210.846 101.5H211.921V100ZM208.465 89.824L209.885 89.3416L209.54 88.324H208.465V89.824ZM191.377 89.824V88.324H190.315L189.962 89.3257L191.377 89.824ZM187.793 100V101.5H188.855L189.208 100.498L187.793 100ZM177.681 100L176.278 99.4694L175.51 101.5H177.681V100ZM194.001 82.336V83.836H205.841V82.336V80.836H194.001V82.336ZM205.841 82.336L207.26 81.8487L201.5 65.0807L200.081 65.568L198.662 66.0553L204.422 82.8233L205.841 82.336ZM200.081 65.568V64.068H199.953V65.568V67.068H200.081V65.568ZM199.953 65.568L198.539 65.0662L192.587 81.8342L194.001 82.336L195.415 82.8378L201.367 66.0698L199.953 65.568ZM194.961 54.304V55.804H205.265V54.304V52.804H194.961V54.304ZM205.265 54.304L203.86 54.8294L220.948 100.525L222.353 100L223.758 99.4746L206.67 53.7786L205.265 54.304ZM222.353 100V98.5H211.921V100V101.5H222.353V100ZM211.921 100L213.341 99.5176L209.885 89.3416L208.465 89.824L207.045 90.3064L210.501 100.482L211.921 100ZM208.465 89.824V88.324H191.377V89.824V91.324H208.465V89.824ZM191.377 89.824L189.962 89.3257L186.378 99.5017L187.793 100L189.208 100.498L192.792 90.3223L191.377 89.824ZM187.793 100V98.5H177.681V100V101.5H187.793V100ZM177.681 100L179.084 100.531L196.364 54.8346L194.961 54.304L193.558 53.7734L176.278 99.4694L177.681 100ZM230.823 82.208H232.323V81.792L232.109 81.4354L230.823 82.208ZM214.055 54.304V52.804H211.404L212.77 55.0766L214.055 54.304ZM225.319 54.304L226.61 53.5397L226.174 52.804H225.319V54.304ZM236.007 72.352L234.717 73.1163L236.011 75.3023L237.3 73.1129L236.007 72.352ZM246.631 54.304V52.804H245.774L245.339 53.5431L246.631 54.304ZM257.831 54.304L259.116 55.0779L260.486 52.804H257.831V54.304ZM240.871 82.464L239.587 81.6901L239.371 82.0472V82.464H240.871ZM240.871 100V101.5H242.371V100H240.871ZM230.823 100H229.323V101.5H230.823V100ZM230.823 82.208L232.109 81.4354L215.341 53.5314L214.055 54.304L212.77 55.0766L229.538 82.9806L230.823 82.208ZM214.055 54.304V55.804H225.319V54.304V52.804H214.055V54.304ZM225.319 54.304L224.029 55.0683L234.717 73.1163L236.007 72.352L237.298 71.5877L226.61 53.5397L225.319 54.304ZM236.007 72.352L237.3 73.1129L247.924 55.0649L246.631 54.304L245.339 53.5431L234.715 71.5911L236.007 72.352ZM246.631 54.304V55.804H257.831V54.304V52.804H246.631V54.304ZM257.831 54.304L256.547 53.5301L239.587 81.6901L240.871 82.464L242.156 83.2379L259.116 55.0779L257.831 54.304ZM240.871 82.464H239.371V100H240.871H242.371V82.464H240.871ZM240.871 100V98.5H230.823V100V101.5H240.871V100ZM230.823 100H232.323V82.208H230.823H229.323V100H230.823ZM267.815 82.976L266.354 83.3158L266.359 83.336L266.364 83.356L267.815 82.976ZM269.991 87.84L268.749 88.6805L268.749 88.6805L269.991 87.84ZM273.831 91.36L273.091 92.6645L273.104 92.6722L273.118 92.6796L273.831 91.36ZM285.351 91.36L286.064 92.6796L286.078 92.6722L286.091 92.6645L285.351 91.36ZM289.191 87.84L287.949 86.9995L287.949 86.9995L289.191 87.84ZM291.303 82.976L289.85 82.6043L289.847 82.6164L289.844 82.6286L291.303 82.976ZM291.303 71.52L289.84 71.8524L289.844 71.8682L289.848 71.8838L291.303 71.52ZM289.191 66.528L287.937 67.3518L287.943 67.3602L287.949 67.3685L289.191 66.528ZM285.351 63.008L284.611 64.3125L284.624 64.3202L284.638 64.3276L285.351 63.008ZM273.831 63.008L274.544 64.3276L274.558 64.3202L274.571 64.3125L273.831 63.008ZM269.991 66.528L271.233 67.3685L271.239 67.3602L271.245 67.3518L269.991 66.528ZM267.815 71.52L266.36 71.1562L266.356 71.1718L266.352 71.1876L267.815 71.52ZM258.663 67.872L260.077 68.3712L260.08 68.3648L258.663 67.872ZM263.079 60.192L264.204 61.1844L264.204 61.1844L263.079 60.192ZM270.119 55.072L269.516 53.6987L269.508 53.7022L270.119 55.072ZM289.063 55.072L288.452 56.4418L288.452 56.4418L289.063 55.072ZM296.103 60.192L294.978 61.1844L294.978 61.1844L296.103 60.192ZM300.519 67.872L299.102 68.3648L299.105 68.3712L300.519 67.872ZM300.519 86.688L301.931 87.1938L301.933 87.1872L300.519 86.688ZM296.103 94.176L294.988 93.1726L294.988 93.1726L296.103 94.176ZM289.063 99.232L289.656 100.61L289.665 100.606L289.674 100.602L289.063 99.232ZM270.119 99.232L269.508 100.602L269.52 100.607L269.533 100.613L270.119 99.232ZM263.079 94.176L264.194 93.1726L264.194 93.1726L263.079 94.176ZM258.663 86.688L257.248 87.1872L257.251 87.1938L258.663 86.688ZM267.175 77.344H265.675C265.675 79.3762 265.901 81.3676 266.354 83.3158L267.815 82.976L269.276 82.6362C268.876 80.9151 268.675 79.1518 268.675 77.344H267.175ZM267.815 82.976L266.364 83.356C266.874 85.3027 267.667 87.0813 268.749 88.6805L269.991 87.84L271.233 86.9995C270.353 85.6974 269.695 84.2333 269.266 82.596L267.815 82.976ZM269.991 87.84L268.749 88.6805C269.864 90.3295 271.319 91.6588 273.091 92.6645L273.831 91.36L274.571 90.0555C273.186 89.2692 272.081 88.2519 271.233 86.9995L269.991 87.84ZM273.831 91.36L273.118 92.6796C274.965 93.6782 277.144 94.14 279.591 94.14V92.64V91.14C277.515 91.14 275.854 90.7484 274.544 90.0404L273.831 91.36ZM279.591 92.64V94.14C282.038 94.14 284.217 93.6782 286.064 92.6796L285.351 91.36L284.638 90.0404C283.328 90.7484 281.667 91.14 279.591 91.14V92.64ZM285.351 91.36L286.091 92.6645C287.863 91.6588 289.318 90.3295 290.433 88.6805L289.191 87.84L287.949 86.9995C287.101 88.2519 285.996 89.2692 284.611 90.0555L285.351 91.36ZM289.191 87.84L290.433 88.6805C291.521 87.0722 292.296 85.2823 292.762 83.3234L291.303 82.976L289.844 82.6286C289.457 84.2537 288.823 85.7064 287.949 86.9995L289.191 87.84ZM291.303 82.976L292.756 83.3477C293.257 81.3899 293.507 79.3876 293.507 77.344H292.007H290.507C290.507 79.1404 290.288 80.8927 289.85 82.6043L291.303 82.976ZM292.007 77.344H293.507C293.507 75.2205 293.258 73.1568 292.758 71.1562L291.303 71.52L289.848 71.8838C290.286 73.6379 290.507 75.4568 290.507 77.344H292.007ZM291.303 71.52L292.766 71.1876C292.302 69.1467 291.529 67.307 290.433 65.6875L289.191 66.528L287.949 67.3685C288.816 68.6503 289.451 70.1386 289.84 71.8524L291.303 71.52ZM289.191 66.528L290.445 65.7042C289.326 64.0026 287.86 62.6593 286.064 61.6884L285.351 63.008L284.638 64.3276C285.999 65.0634 287.093 66.0668 287.937 67.3518L289.191 66.528ZM285.351 63.008L286.091 61.7035C284.238 60.6515 282.049 60.164 279.591 60.164V61.664V63.164C281.656 63.164 283.307 63.5725 284.611 64.3125L285.351 63.008ZM279.591 61.664V60.164C277.133 60.164 274.944 60.6515 273.091 61.7035L273.831 63.008L274.571 64.3125C275.875 63.5725 277.526 63.164 279.591 63.164V61.664ZM273.831 63.008L273.118 61.6884C271.322 62.6593 269.856 64.0026 268.737 65.7042L269.991 66.528L271.245 67.3518C272.089 66.0668 273.183 65.0634 274.544 64.3276L273.831 63.008ZM269.991 66.528L268.749 65.6875C267.659 67.2979 266.867 69.1265 266.36 71.1562L267.815 71.52L269.27 71.8838C269.701 70.1588 270.36 68.6595 271.233 67.3685L269.991 66.528ZM267.815 71.52L266.352 71.1876C265.9 73.1784 265.675 75.2315 265.675 77.344H267.175H268.675C268.675 75.4459 268.877 73.6162 269.278 71.8524L267.815 71.52ZM257.127 77.344H258.627C258.627 74.0822 259.116 71.0956 260.077 68.3712L258.663 67.872L257.249 67.3728C256.162 70.451 255.627 73.7791 255.627 77.344H257.127ZM258.663 67.872L260.08 68.3648C261.045 65.5909 262.422 63.2039 264.204 61.1844L263.079 60.192L261.954 59.1996C259.896 61.5321 258.329 64.2651 257.246 67.3792L258.663 67.872ZM263.079 60.192L264.204 61.1844C265.975 59.1771 268.144 57.5958 270.73 56.4418L270.119 55.072L269.508 53.7022C266.548 55.0229 264.023 56.8549 261.954 59.1996L263.079 60.192ZM270.119 55.072L270.722 56.4453C273.324 55.3023 276.272 54.716 279.591 54.716V53.216V51.716C275.913 51.716 272.546 52.3671 269.516 53.6987L270.119 55.072ZM279.591 53.216V54.716C282.956 54.716 285.9 55.3034 288.452 56.4418L289.063 55.072L289.674 53.7022C286.679 52.3659 283.308 51.716 279.591 51.716V53.216ZM289.063 55.072L288.452 56.4418C291.038 57.5958 293.207 59.1771 294.978 61.1844L296.103 60.192L297.228 59.1996C295.159 56.8549 292.634 55.0229 289.674 53.7022L289.063 55.072ZM296.103 60.192L294.978 61.1844C296.76 63.2039 298.137 65.5909 299.102 68.3648L300.519 67.872L301.936 67.3792C300.853 64.2651 299.286 61.5321 297.228 59.1996L296.103 60.192ZM300.519 67.872L299.105 68.3712C300.066 71.0956 300.555 74.0822 300.555 77.344H302.055H303.555C303.555 73.7791 303.02 70.451 301.933 67.3728L300.519 67.872ZM302.055 77.344H300.555C300.555 80.5158 300.067 83.4604 299.105 86.1888L300.519 86.688L301.933 87.1872C303.019 84.1129 303.555 80.8282 303.555 77.344H302.055ZM300.519 86.688L299.107 86.1822C298.145 88.868 296.77 91.1925 294.988 93.1726L296.103 94.176L297.218 95.1794C299.276 92.8929 300.845 90.2253 301.931 87.1938L300.519 86.688ZM296.103 94.176L294.988 93.1726C293.217 95.1409 291.045 96.7053 288.452 97.8622L289.063 99.232L289.674 100.602C292.628 99.284 295.149 97.4778 297.218 95.1794L296.103 94.176ZM289.063 99.232L288.47 97.8544C285.913 98.9556 282.963 99.524 279.591 99.524V101.024V102.524C283.302 102.524 286.666 101.898 289.656 100.61L289.063 99.232ZM279.591 101.024V99.524C276.265 99.524 273.311 98.9567 270.705 97.8511L270.119 99.232L269.533 100.613C272.559 101.897 275.92 102.524 279.591 102.524V101.024ZM270.119 99.232L270.73 97.8622C268.137 96.7053 265.965 95.1409 264.194 93.1726L263.079 94.176L261.964 95.1794C264.033 97.4778 266.554 99.284 269.508 100.602L270.119 99.232ZM263.079 94.176L264.194 93.1726C262.412 91.1925 261.037 88.868 260.075 86.1822L258.663 86.688L257.251 87.1938C258.337 90.2253 259.906 92.8929 261.964 95.1794L263.079 94.176ZM258.663 86.688L260.077 86.1888C259.115 83.4604 258.627 80.5158 258.627 77.344H257.127H255.627C255.627 80.8282 256.163 84.1129 257.249 87.1872L258.663 86.688Z" fill="black" mask="url(#path-1-outside-1_33_4)"/>
</svg>
